# Blender v3.0.0 OBJ File: ''
# www.blender.org
mtllib blender-unit-ref.mtl
o Cube
v 0.876724 1.876724 -1.000000
v 0.876724 2.000000 -0.876724
v 1.000000 1.876724 -0.876724
v 0.876724 0.000000 -1.000000
v 1.000000 0.000000 -0.876724
v 1.000000 1.876724 0.876724
v 0.876724 2.000000 0.876724
v 0.876724 1.876724 1.000000
v 1.000000 0.000000 0.876724
v 0.876724 0.000000 1.000000
v -0.876724 1.876724 -1.000000
v -1.000000 1.876724 -0.876724
v -0.876724 2.000000 -0.876724
v -1.000000 0.000000 -0.876724
v -0.876724 0.000000 -1.000000
v -1.000000 1.876724 0.876724
v -0.876724 1.876724 1.000000
v -0.876724 2.000000 0.876724
v -0.876724 0.000000 1.000000
v -1.000000 0.000000 0.876724
vt 0.125000 0.515410
vt 0.140410 0.500000
vt 0.359590 0.500000
vt 0.375000 0.515410
vt 0.375000 0.734590
vt 0.359590 0.750000
vt 0.140410 0.750000
vt 0.125000 0.734590
vt 0.375000 0.015410
vt 0.609590 0.015410
vt 0.609590 0.234590
vt 0.375000 0.234590
vt 0.375000 0.765410
vt 0.609590 0.765410
vt 0.609590 0.984590
vt 0.375000 0.984590
vt 0.640410 0.515410
vt 0.859591 0.515410
vt 0.859590 0.734590
vt 0.640410 0.734590
vt 0.609590 0.515410
vt 0.609590 0.734590
vt 0.640410 0.500000
vt 0.625000 0.515410
vt 0.625000 0.515410
vt 0.625000 0.734590
vt 0.625000 0.734590
vt 0.640410 0.750000
vt 0.609590 0.250000
vt 0.609590 0.250000
vt 0.625000 0.234590
vt 0.609590 0.000000
vt 0.625000 0.015410
vt 0.375000 0.484590
vt 0.609590 0.484590
vt 0.375000 0.000000
vt 0.609590 0.265410
vt 0.375000 0.265410
vt 0.859590 0.750000
vt 0.875000 0.515410
vt 0.875000 0.734590
vt 0.859590 0.500000
vn 0.0000 -1.0000 0.0000
vn -1.0000 0.0000 0.0000
vn 0.0000 0.0000 1.0000
vn 0.0000 1.0000 0.0000
vn 1.0000 0.0000 0.0000
vn 0.5774 0.5774 -0.5773
vn 0.5774 0.5774 0.5773
vn -0.5774 0.5774 -0.5773
vn -0.5774 0.5774 0.5773
vn 0.7071 0.0000 -0.7071
vn -0.7071 0.0000 0.7071
vn 0.7071 0.0000 0.7071
vn -0.7071 0.0000 -0.7071
vn 0.0000 0.7071 0.7071
vn 0.7071 0.7071 0.0000
vn -0.7071 0.7071 0.0000
vn 0.0000 0.7071 -0.7071
vn 0.0000 0.0000 -1.0000
usemtl Material
s off
f 14/1/1 15/2/1 4/3/1 5/4/1 9/5/1 10/6/1 19/7/1 20/8/1
f 20/9/2 16/10/2 12/11/2 14/12/2
f 10/13/3 8/14/3 17/15/3 19/16/3
f 2/17/4 13/18/4 18/19/4 7/20/4
f 5/4/5 3/21/5 6/22/5 9/5/5
f 1/23/6 2/24/6 3/25/6
f 6/26/7 7/27/7 8/28/7
f 11/29/8 12/30/8 13/31/8
f 16/10/9 17/32/9 18/33/9
f 3/21/10 5/4/10 4/34/10 1/35/10
f 19/36/11 17/32/11 16/10/11 20/9/11
f 8/14/12 10/13/12 9/5/12 6/22/12
f 11/37/13 15/38/13 14/12/13 12/11/13
f 7/20/14 18/19/14 17/39/14 8/28/14
f 2/17/15 7/20/15 6/22/15 3/21/15
f 18/19/16 13/18/16 12/40/16 16/41/16
f 13/18/17 2/17/17 1/23/17 11/42/17
f 15/38/18 11/37/18 1/35/18 4/34/18
